<?xml version="1.0" encoding="UTF-8" standalone="no"?>
<!DOCTYPE svg PUBLIC "-//W3C//DTD SVG 1.1//EN"
 "http://www.w3.org/Graphics/SVG/1.1/DTD/svg11.dtd">
<!-- Generated by graphviz version 2.43.0 (0)
 -->
<!-- Title: G Pages: 1 -->
<svg width="517pt" height="394pt"
 viewBox="0.00 0.00 517.20 394.20" xmlns="http://www.w3.org/2000/svg" xmlns:xlink="http://www.w3.org/1999/xlink">
<g id="graph0" class="graph" transform="scale(1 1) rotate(0) translate(21.6 372.6)">
<title>G</title>
<polygon fill="#111111" stroke="transparent" points="-21.6,21.6 -21.6,-372.6 495.6,-372.6 495.6,21.6 -21.6,21.6"/>
<!-- app/api/health/route.ts -->
<g id="node1" class="node">
<title>app/api/health/route.ts</title>
<path fill="none" stroke="#cfffac" d="M187.83,-23C187.83,-23 53.17,-23 53.17,-23 49.33,-23 45.5,-19.17 45.5,-15.33 45.5,-15.33 45.5,-7.67 45.5,-7.67 45.5,-3.83 49.33,0 53.17,0 53.17,0 187.83,0 187.83,0 191.67,0 195.5,-3.83 195.5,-7.67 195.5,-7.67 195.5,-15.33 195.5,-15.33 195.5,-19.17 191.67,-23 187.83,-23"/>
<text text-anchor="middle" x="120.5" y="-7.8" font-family="Arial" font-size="14.00" fill="#cfffac">app/api/health/route.ts</text>
</g>
<!-- app/layout.tsx -->
<g id="node2" class="node">
<title>app/layout.tsx</title>
<path fill="none" stroke="#c6c5fe" d="M162.83,-64C162.83,-64 78.17,-64 78.17,-64 74.33,-64 70.5,-60.17 70.5,-56.33 70.5,-56.33 70.5,-48.67 70.5,-48.67 70.5,-44.83 74.33,-41 78.17,-41 78.17,-41 162.83,-41 162.83,-41 166.67,-41 170.5,-44.83 170.5,-48.67 170.5,-48.67 170.5,-56.33 170.5,-56.33 170.5,-60.17 166.67,-64 162.83,-64"/>
<text text-anchor="middle" x="120.5" y="-48.8" font-family="Arial" font-size="14.00" fill="#c6c5fe">app/layout.tsx</text>
</g>
<!-- styles/tailwind.css -->
<g id="node3" class="node">
<title>styles/tailwind.css</title>
<path fill="none" stroke="#cfffac" d="M429.83,-64C429.83,-64 321.17,-64 321.17,-64 317.33,-64 313.5,-60.17 313.5,-56.33 313.5,-56.33 313.5,-48.67 313.5,-48.67 313.5,-44.83 317.33,-41 321.17,-41 321.17,-41 429.83,-41 429.83,-41 433.67,-41 437.5,-44.83 437.5,-48.67 437.5,-48.67 437.5,-56.33 437.5,-56.33 437.5,-60.17 433.67,-64 429.83,-64"/>
<text text-anchor="middle" x="375.5" y="-48.8" font-family="Arial" font-size="14.00" fill="#cfffac">styles/tailwind.css</text>
</g>
<!-- app/layout.tsx&#45;&gt;styles/tailwind.css -->
<g id="edge1" class="edge">
<title>app/layout.tsx&#45;&gt;styles/tailwind.css</title>
<path fill="none" stroke="#757575" d="M170.58,-52.5C208.28,-52.5 260.89,-52.5 303.23,-52.5"/>
<polygon fill="#757575" stroke="#757575" points="303.48,-56 313.48,-52.5 303.48,-49 303.48,-56"/>
</g>
<!-- app/page.tsx -->
<g id="node4" class="node">
<title>app/page.tsx</title>
<path fill="none" stroke="#c6c5fe" d="M159.83,-105C159.83,-105 81.17,-105 81.17,-105 77.33,-105 73.5,-101.17 73.5,-97.33 73.5,-97.33 73.5,-89.67 73.5,-89.67 73.5,-85.83 77.33,-82 81.17,-82 81.17,-82 159.83,-82 159.83,-82 163.67,-82 167.5,-85.83 167.5,-89.67 167.5,-89.67 167.5,-97.33 167.5,-97.33 167.5,-101.17 163.67,-105 159.83,-105"/>
<text text-anchor="middle" x="120.5" y="-89.8" font-family="Arial" font-size="14.00" fill="#c6c5fe">app/page.tsx</text>
</g>
<!-- components/Button/Button.tsx -->
<g id="node5" class="node">
<title>components/Button/Button.tsx</title>
<path fill="none" stroke="#cfffac" d="M466.33,-146C466.33,-146 284.67,-146 284.67,-146 280.83,-146 277,-142.17 277,-138.33 277,-138.33 277,-130.67 277,-130.67 277,-126.83 280.83,-123 284.67,-123 284.67,-123 466.33,-123 466.33,-123 470.17,-123 474,-126.83 474,-130.67 474,-130.67 474,-138.33 474,-138.33 474,-142.17 470.17,-146 466.33,-146"/>
<text text-anchor="middle" x="375.5" y="-130.8" font-family="Arial" font-size="14.00" fill="#cfffac">components/Button/Button.tsx</text>
</g>
<!-- app/page.tsx&#45;&gt;components/Button/Button.tsx -->
<g id="edge2" class="edge">
<title>app/page.tsx&#45;&gt;components/Button/Button.tsx</title>
<path fill="none" stroke="#757575" d="M167.61,-100.97C202.63,-106.65 251.7,-114.6 293.25,-121.33"/>
<polygon fill="#757575" stroke="#757575" points="292.94,-124.83 303.37,-122.97 294.06,-117.92 292.94,-124.83"/>
</g>
<!-- lp&#45;items.tsx -->
<g id="node6" class="node">
<title>lp&#45;items.tsx</title>
<path fill="none" stroke="#cfffac" d="M410.83,-105C410.83,-105 340.17,-105 340.17,-105 336.33,-105 332.5,-101.17 332.5,-97.33 332.5,-97.33 332.5,-89.67 332.5,-89.67 332.5,-85.83 336.33,-82 340.17,-82 340.17,-82 410.83,-82 410.83,-82 414.67,-82 418.5,-85.83 418.5,-89.67 418.5,-89.67 418.5,-97.33 418.5,-97.33 418.5,-101.17 414.67,-105 410.83,-105"/>
<text text-anchor="middle" x="375.5" y="-89.8" font-family="Arial" font-size="14.00" fill="#cfffac">lp&#45;items.tsx</text>
</g>
<!-- app/page.tsx&#45;&gt;lp&#45;items.tsx -->
<g id="edge3" class="edge">
<title>app/page.tsx&#45;&gt;lp&#45;items.tsx</title>
<path fill="none" stroke="#757575" d="M167.61,-93.5C211.24,-93.5 276.67,-93.5 322.22,-93.5"/>
<polygon fill="#757575" stroke="#757575" points="322.49,-97 332.49,-93.5 322.49,-90 322.49,-97"/>
</g>
<!-- components/Button/Button.stories.tsx -->
<g id="node7" class="node">
<title>components/Button/Button.stories.tsx</title>
<path fill="none" stroke="#c6c5fe" d="M233.33,-146C233.33,-146 7.67,-146 7.67,-146 3.83,-146 0,-142.17 0,-138.33 0,-138.33 0,-130.67 0,-130.67 0,-126.83 3.83,-123 7.67,-123 7.67,-123 233.33,-123 233.33,-123 237.17,-123 241,-126.83 241,-130.67 241,-130.67 241,-138.33 241,-138.33 241,-142.17 237.17,-146 233.33,-146"/>
<text text-anchor="middle" x="120.5" y="-130.8" font-family="Arial" font-size="14.00" fill="#c6c5fe">components/Button/Button.stories.tsx</text>
</g>
<!-- components/Button/Button.stories.tsx&#45;&gt;components/Button/Button.tsx -->
<g id="edge4" class="edge">
<title>components/Button/Button.stories.tsx&#45;&gt;components/Button/Button.tsx</title>
<path fill="none" stroke="#757575" d="M241.33,-134.5C249.78,-134.5 258.26,-134.5 266.63,-134.5"/>
<polygon fill="#757575" stroke="#757575" points="266.78,-138 276.78,-134.5 266.78,-131 266.78,-138"/>
</g>
<!-- components/Tooltip/Tooltip.tsx -->
<g id="node8" class="node">
<title>components/Tooltip/Tooltip.tsx</title>
<path fill="none" stroke="#cfffac" d="M211.33,-187C211.33,-187 29.67,-187 29.67,-187 25.83,-187 22,-183.17 22,-179.33 22,-179.33 22,-171.67 22,-171.67 22,-167.83 25.83,-164 29.67,-164 29.67,-164 211.33,-164 211.33,-164 215.17,-164 219,-167.83 219,-171.67 219,-171.67 219,-179.33 219,-179.33 219,-183.17 215.17,-187 211.33,-187"/>
<text text-anchor="middle" x="120.5" y="-171.8" font-family="Arial" font-size="14.00" fill="#cfffac">components/Tooltip/Tooltip.tsx</text>
</g>
<!-- jest.config.js -->
<g id="node9" class="node">
<title>jest.config.js</title>
<path fill="none" stroke="#cfffac" d="M158.33,-228C158.33,-228 82.67,-228 82.67,-228 78.83,-228 75,-224.17 75,-220.33 75,-220.33 75,-212.67 75,-212.67 75,-208.83 78.83,-205 82.67,-205 82.67,-205 158.33,-205 158.33,-205 162.17,-205 166,-208.83 166,-212.67 166,-212.67 166,-220.33 166,-220.33 166,-224.17 162.17,-228 158.33,-228"/>
<text text-anchor="middle" x="120.5" y="-212.8" font-family="Arial" font-size="14.00" fill="#cfffac">jest.config.js</text>
</g>
<!-- jest.setup.js -->
<g id="node10" class="node">
<title>jest.setup.js</title>
<path fill="none" stroke="#cfffac" d="M156.83,-269C156.83,-269 84.17,-269 84.17,-269 80.33,-269 76.5,-265.17 76.5,-261.33 76.5,-261.33 76.5,-253.67 76.5,-253.67 76.5,-249.83 80.33,-246 84.17,-246 84.17,-246 156.83,-246 156.83,-246 160.67,-246 164.5,-249.83 164.5,-253.67 164.5,-253.67 164.5,-261.33 164.5,-261.33 164.5,-265.17 160.67,-269 156.83,-269"/>
<text text-anchor="middle" x="120.5" y="-253.8" font-family="Arial" font-size="14.00" fill="#cfffac">jest.setup.js</text>
</g>
<!-- middleware.ts -->
<g id="node11" class="node">
<title>middleware.ts</title>
<path fill="none" stroke="#cfffac" d="M163.33,-310C163.33,-310 77.67,-310 77.67,-310 73.83,-310 70,-306.17 70,-302.33 70,-302.33 70,-294.67 70,-294.67 70,-290.83 73.83,-287 77.67,-287 77.67,-287 163.33,-287 163.33,-287 167.17,-287 171,-290.83 171,-294.67 171,-294.67 171,-302.33 171,-302.33 171,-306.17 167.17,-310 163.33,-310"/>
<text text-anchor="middle" x="120.5" y="-294.8" font-family="Arial" font-size="14.00" fill="#cfffac">middleware.ts</text>
</g>
<!-- report&#45;bundle&#45;size.js -->
<g id="node12" class="node">
<title>report&#45;bundle&#45;size.js</title>
<path fill="none" stroke="#cfffac" d="M182.33,-351C182.33,-351 58.67,-351 58.67,-351 54.83,-351 51,-347.17 51,-343.33 51,-343.33 51,-335.67 51,-335.67 51,-331.83 54.83,-328 58.67,-328 58.67,-328 182.33,-328 182.33,-328 186.17,-328 190,-331.83 190,-335.67 190,-335.67 190,-343.33 190,-343.33 190,-347.17 186.17,-351 182.33,-351"/>
<text text-anchor="middle" x="120.5" y="-335.8" font-family="Arial" font-size="14.00" fill="#cfffac">report&#45;bundle&#45;size.js</text>
</g>
</g>
</svg>
