<svg xmlns="http://www.w3.org/2000/svg" xmlns:xlink="http://www.w3.org/1999/xlink" width="800" zoomAndPan="magnify" viewBox="0 0 600 599.999999" height="800" preserveAspectRatio="xMidYMid meet" version="1.0"><path fill="#f2751f" d="M 119.726562 491.820312 L 126.519531 498.539062 L 127.199219 499.21875 C 148.335938 521.109375 148.109375 556.363281 126.519531 577.953125 C 104.929688 599.542969 69.675781 599.769531 47.785156 578.632812 L 47.105469 577.953125 L 40.3125 571.234375 L 21.816406 552.664062 C 0 530.847656 0 495.140625 21.816406 473.25 C 43.632812 451.433594 79.414062 451.433594 101.230469 473.25 Z M 494.304688 184.578125 L 577.648438 101.234375 C 599.464844 79.417969 599.464844 43.710938 577.648438 21.820312 C 555.753906 0.00390625 520.046875 0.00390625 498.230469 21.820312 L 375.183594 144.867188 C 353.367188 166.683594 353.367188 202.390625 375.183594 224.285156 L 414.890625 263.992188 L 421.988281 271.011719 L 498.761719 347.785156 C 520.578125 369.601562 556.285156 369.601562 578.175781 347.785156 C 599.992188 325.96875 599.992188 290.1875 578.175781 268.371094 L 501.402344 191.597656 Z M 24.988281 22.347656 L 24.988281 22.273438 C 46.804688 0.457031 82.585938 0.457031 104.402344 22.273438 L 577.117188 495.066406 C 599.011719 516.882812 599.011719 552.664062 577.117188 574.480469 C 555.300781 596.296875 519.59375 596.296875 497.703125 574.480469 L 24.988281 101.6875 C 3.171875 79.871094 3.171875 44.164062 24.988281 22.347656 Z M 24.308594 248.667969 C 46.125 226.851562 81.832031 226.851562 103.722656 248.667969 L 350.800781 495.746094 C 372.617188 517.5625 372.617188 553.34375 350.800781 575.160156 C 328.910156 596.976562 293.203125 596.976562 271.386719 575.160156 L 24.308594 328.082031 C 2.492188 306.265625 2.492188 270.484375 24.308594 248.667969 Z M 24.308594 248.667969 " fill-opacity="1" fill-rule="evenodd"/></svg>