<svg xmlns="http://www.w3.org/2000/svg" xmlns:xlink="http://www.w3.org/1999/xlink" width="544" zoomAndPan="magnify" viewBox="0 0 408 82.499998" height="110" preserveAspectRatio="xMidYMid meet" version="1.0"><defs><g/></defs><path fill="#f2751f" d="M 13.617188 54.492188 L 14.308594 55.171875 L 14.375 55.242188 C 16.519531 57.460938 16.496094 61.035156 14.308594 63.222656 C 12.117188 65.410156 8.546875 65.433594 6.324219 63.289062 L 6.257812 63.222656 L 5.570312 62.539062 L 3.695312 60.660156 C 1.484375 58.449219 1.484375 54.828125 3.695312 52.609375 C 5.90625 50.398438 9.53125 50.398438 11.742188 52.609375 Z M 51.585938 23.351562 L 52.25 22.683594 L 60.03125 14.902344 C 62.242188 12.691406 62.242188 9.070312 60.03125 6.851562 C 57.8125 4.640625 54.195312 4.640625 51.984375 6.851562 L 39.511719 19.324219 C 37.300781 21.535156 37.300781 25.15625 39.511719 27.375 L 43.535156 31.398438 L 44.253906 32.109375 L 52.035156 39.890625 C 54.246094 42.105469 57.867188 42.105469 60.085938 39.890625 C 62.296875 37.679688 62.296875 34.054688 60.085938 31.84375 L 52.304688 24.0625 Z M 4.015625 6.90625 L 4.015625 6.898438 C 6.226562 4.6875 9.851562 4.6875 12.066406 6.898438 L 59.980469 54.820312 C 62.199219 57.03125 62.199219 60.660156 59.980469 62.871094 C 57.765625 65.082031 54.148438 65.082031 51.929688 62.871094 L 4.015625 14.949219 C 1.804688 12.738281 1.804688 9.117188 4.015625 6.90625 Z M 3.945312 29.847656 C 6.15625 27.632812 9.777344 27.632812 11.996094 29.847656 L 17.453125 35.300781 L 29.257812 47.109375 L 37.039062 54.890625 C 39.25 57.101562 39.25 60.726562 37.039062 62.9375 C 34.820312 65.148438 31.203125 65.148438 28.988281 62.9375 L 3.945312 37.894531 C 1.734375 35.683594 1.734375 32.058594 3.945312 29.847656 Z M 3.945312 29.847656 " fill-opacity="1" fill-rule="evenodd"/><g fill="#000000" fill-opacity="1"><g transform="translate(76.989907, 55.356782)"><g><path d="M 3.375 0 L 3.375 -34.78125 L 16.140625 -34.78125 C 18.929688 -34.78125 21.226562 -34.304688 23.03125 -33.359375 C 24.832031 -32.421875 26.179688 -31.144531 27.078125 -29.53125 C 27.972656 -27.925781 28.421875 -26.148438 28.421875 -24.203125 C 28.421875 -22.078125 27.863281 -20.132812 26.75 -18.375 C 25.644531 -16.625 23.914062 -15.351562 21.5625 -14.5625 L 28.765625 0 L 21.46875 0 L 15 -13.71875 L 9.734375 -13.71875 L 9.734375 0 Z M 9.734375 -18.390625 L 15.75 -18.390625 C 17.875 -18.390625 19.429688 -18.898438 20.421875 -19.921875 C 21.410156 -20.953125 21.90625 -22.3125 21.90625 -24 C 21.90625 -25.65625 21.414062 -26.976562 20.4375 -27.96875 C 19.46875 -28.96875 17.890625 -29.46875 15.703125 -29.46875 L 9.734375 -29.46875 Z M 9.734375 -18.390625 "/></g></g></g><g fill="#000000" fill-opacity="1"><g transform="translate(115.62917, 55.356782)"><g><path d="M 1.140625 0 L 13.859375 -34.78125 L 21.015625 -34.78125 L 33.734375 0 L 26.984375 0 L 24.203125 -8.046875 L 10.640625 -8.046875 L 7.796875 0 Z M 12.375 -13.015625 L 22.453125 -13.015625 L 17.390625 -27.484375 Z M 12.375 -13.015625 "/></g></g></g><g fill="#000000" fill-opacity="1"><g transform="translate(158.141797, 55.356782)"><g><path d="M 3.375 0 L 3.375 -34.78125 L 9.734375 -34.78125 L 9.734375 0 Z M 3.375 0 "/></g></g></g><g fill="#000000" fill-opacity="1"><g transform="translate(178.953599, 55.356782)"><g><path d="M 15.25 0.59375 C 12.695312 0.59375 10.441406 0.15625 8.484375 -0.71875 C 6.535156 -1.59375 5 -2.847656 3.875 -4.484375 C 2.75 -6.128906 2.171875 -8.128906 2.140625 -10.484375 L 8.84375 -10.484375 C 8.90625 -8.859375 9.488281 -7.488281 10.59375 -6.375 C 11.707031 -5.269531 13.242188 -4.71875 15.203125 -4.71875 C 16.890625 -4.71875 18.226562 -5.125 19.21875 -5.9375 C 20.21875 -6.75 20.71875 -7.832031 20.71875 -9.1875 C 20.71875 -10.613281 20.28125 -11.722656 19.40625 -12.515625 C 18.53125 -13.316406 17.363281 -13.960938 15.90625 -14.453125 C 14.445312 -14.953125 12.890625 -15.484375 11.234375 -16.046875 C 8.546875 -16.972656 6.5 -18.164062 5.09375 -19.625 C 3.6875 -21.082031 2.984375 -23.019531 2.984375 -25.4375 C 2.953125 -27.488281 3.441406 -29.25 4.453125 -30.71875 C 5.460938 -32.195312 6.84375 -33.34375 8.59375 -34.15625 C 10.351562 -34.96875 12.375 -35.375 14.65625 -35.375 C 16.976562 -35.375 19.023438 -34.957031 20.796875 -34.125 C 22.566406 -33.300781 23.957031 -32.144531 24.96875 -30.65625 C 25.976562 -29.164062 26.515625 -27.394531 26.578125 -25.34375 L 19.78125 -25.34375 C 19.738281 -26.5625 19.265625 -27.644531 18.359375 -28.59375 C 17.453125 -29.539062 16.1875 -30.015625 14.5625 -30.015625 C 13.164062 -30.046875 11.992188 -29.703125 11.046875 -28.984375 C 10.109375 -28.273438 9.640625 -27.242188 9.640625 -25.890625 C 9.640625 -24.722656 10.003906 -23.800781 10.734375 -23.125 C 11.460938 -22.445312 12.457031 -21.875 13.71875 -21.40625 C 14.976562 -20.945312 16.414062 -20.453125 18.03125 -19.921875 C 19.757812 -19.328125 21.332031 -18.628906 22.75 -17.828125 C 24.175781 -17.035156 25.320312 -15.984375 26.1875 -14.671875 C 27.050781 -13.367188 27.484375 -11.691406 27.484375 -9.640625 C 27.484375 -7.816406 27.015625 -6.125 26.078125 -4.5625 C 25.148438 -3.007812 23.773438 -1.757812 21.953125 -0.8125 C 20.140625 0.125 17.90625 0.59375 15.25 0.59375 Z M 15.25 0.59375 "/></g></g></g><g fill="#000000" fill-opacity="1"><g transform="translate(216.30175, 55.356782)"><g><path d="M 3.375 0 L 3.375 -34.78125 L 26.078125 -34.78125 L 26.078125 -29.65625 L 9.734375 -29.65625 L 9.734375 -20.125 L 24.59375 -20.125 L 24.59375 -15.15625 L 9.734375 -15.15625 L 9.734375 -5.125 L 26.078125 -5.125 L 26.078125 0 Z M 3.375 0 "/></g></g></g><g fill="#000000" fill-opacity="1"><g transform="translate(252.720989, 55.356782)"><g><path d="M 11.828125 0 L 11.828125 -31.359375 L 1.4375 -31.359375 L 1.4375 -34.78125 L 26.390625 -34.78125 L 26.390625 -31.359375 L 16 -31.359375 L 16 0 Z M 11.828125 0 "/></g></g></g><g fill="#000000" fill-opacity="1"><g transform="translate(288.231754, 55.356782)"><g><path d="M 1.484375 0 L 14.3125 -34.78125 L 18.734375 -34.78125 L 31.5 0 L 27.078125 0 L 23.90625 -8.9375 L 9.09375 -8.9375 L 5.859375 0 Z M 10.328125 -12.328125 L 22.65625 -12.328125 L 16.5 -29.515625 Z M 10.328125 -12.328125 "/></g></g></g><g fill="#000000" fill-opacity="1"><g transform="translate(328.90702, 55.356782)"><g><path d="M 3.671875 0 L 3.671875 -34.78125 L 7.84375 -34.78125 L 7.84375 -3.328125 L 24.046875 -3.328125 L 24.046875 0 Z M 3.671875 0 "/></g></g></g><g fill="#000000" fill-opacity="1"><g transform="translate(362.679732, 55.356782)"><g><path d="M 3.671875 0 L 3.671875 -34.78125 L 7.84375 -34.78125 L 7.84375 -19.03125 L 22.359375 -34.78125 L 27.625 -34.78125 L 14.703125 -20.921875 L 27.828125 0 L 22.75 0 L 11.71875 -17.6875 L 7.84375 -13.5625 L 7.84375 0 Z M 3.671875 0 "/></g></g></g></svg>